<mxfile host="app.diagrams.net" agent="Mozilla/5.0 (Macintosh; Intel Mac OS X 10_15_7) AppleWebKit/537.36 (KHTML, like Gecko) Chrome/134.0.0.0 Safari/537.36" version="26.2.3">
  <diagram name="第 1 页" id="cJ7M5kMfP_TePTH7BIz_">
    <mxGraphModel dx="1046" dy="739" grid="1" gridSize="10" guides="1" tooltips="1" connect="1" arrows="1" fold="1" page="1" pageScale="1" pageWidth="980" pageHeight="690" math="0" shadow="0">
      <root>
        <mxCell id="0" />
        <mxCell id="1" parent="0" />
        <mxCell id="3y0p0SEjVA0qC8wyg05C-3" value="" style="edgeStyle=orthogonalEdgeStyle;rounded=0;orthogonalLoop=1;jettySize=auto;html=1;sketch=1;curveFitting=1;jiggle=2;" edge="1" parent="1" source="3y0p0SEjVA0qC8wyg05C-1" target="3y0p0SEjVA0qC8wyg05C-2">
          <mxGeometry relative="1" as="geometry" />
        </mxCell>
        <mxCell id="3y0p0SEjVA0qC8wyg05C-1" value="Start" style="strokeWidth=2;html=1;shape=mxgraph.flowchart.start_1;whiteSpace=wrap;fontSize=16;sketch=1;curveFitting=1;jiggle=2;" vertex="1" parent="1">
          <mxGeometry x="440" y="70" width="100" height="60" as="geometry" />
        </mxCell>
        <mxCell id="3y0p0SEjVA0qC8wyg05C-5" value="" style="edgeStyle=orthogonalEdgeStyle;rounded=0;orthogonalLoop=1;jettySize=auto;html=1;sketch=1;curveFitting=1;jiggle=2;" edge="1" parent="1" source="3y0p0SEjVA0qC8wyg05C-2">
          <mxGeometry relative="1" as="geometry">
            <mxPoint x="490" y="310" as="targetPoint" />
          </mxGeometry>
        </mxCell>
        <mxCell id="3y0p0SEjVA0qC8wyg05C-2" value="Email/Username/Password" style="whiteSpace=wrap;html=1;fontSize=16;strokeWidth=2;sketch=1;curveFitting=1;jiggle=2;" vertex="1" parent="1">
          <mxGeometry x="350" y="170" width="280" height="60" as="geometry" />
        </mxCell>
        <mxCell id="3y0p0SEjVA0qC8wyg05C-10" value="" style="edgeStyle=orthogonalEdgeStyle;rounded=0;orthogonalLoop=1;jettySize=auto;html=1;sketch=1;curveFitting=1;jiggle=2;" edge="1" parent="1" source="3y0p0SEjVA0qC8wyg05C-6">
          <mxGeometry relative="1" as="geometry">
            <mxPoint x="490" y="420" as="targetPoint" />
          </mxGeometry>
        </mxCell>
        <mxCell id="3y0p0SEjVA0qC8wyg05C-14" value="No" style="edgeLabel;html=1;align=center;verticalAlign=middle;resizable=0;points=[];fontSize=16;sketch=1;curveFitting=1;jiggle=2;" vertex="1" connectable="0" parent="3y0p0SEjVA0qC8wyg05C-10">
          <mxGeometry x="0.0488" relative="1" as="geometry">
            <mxPoint as="offset" />
          </mxGeometry>
        </mxCell>
        <mxCell id="3y0p0SEjVA0qC8wyg05C-12" style="edgeStyle=orthogonalEdgeStyle;rounded=0;orthogonalLoop=1;jettySize=auto;html=1;exitX=1;exitY=0.5;exitDx=0;exitDy=0;exitPerimeter=0;entryX=1;entryY=0.5;entryDx=0;entryDy=0;sketch=1;curveFitting=1;jiggle=2;" edge="1" parent="1" source="3y0p0SEjVA0qC8wyg05C-6" target="3y0p0SEjVA0qC8wyg05C-2">
          <mxGeometry relative="1" as="geometry">
            <Array as="points">
              <mxPoint x="710" y="305" />
              <mxPoint x="710" y="200" />
            </Array>
          </mxGeometry>
        </mxCell>
        <mxCell id="3y0p0SEjVA0qC8wyg05C-13" value="Yes" style="edgeLabel;html=1;align=center;verticalAlign=middle;resizable=0;points=[];fontSize=16;sketch=1;curveFitting=1;jiggle=2;" vertex="1" connectable="0" parent="3y0p0SEjVA0qC8wyg05C-12">
          <mxGeometry x="0.0235" y="-3" relative="1" as="geometry">
            <mxPoint as="offset" />
          </mxGeometry>
        </mxCell>
        <mxCell id="3y0p0SEjVA0qC8wyg05C-6" value="&lt;span style=&quot;caret-color: rgb(28, 31, 35); color: rgb(28, 31, 35); font-family: Inter, -apple-system, BlinkMacSystemFont, &amp;quot;Segoe UI&amp;quot;, &amp;quot;SF Pro SC&amp;quot;, &amp;quot;SF Pro Display&amp;quot;, &amp;quot;SF Pro Icons&amp;quot;, &amp;quot;PingFang SC&amp;quot;, &amp;quot;Hiragino Sans GB&amp;quot;, &amp;quot;Microsoft YaHei&amp;quot;, &amp;quot;Helvetica Neue&amp;quot;, Helvetica, Arial, sans-serif; font-size: medium; text-align: start; white-space: pre; background-color: rgb(255, 255, 255);&quot;&gt;email has registered&lt;/span&gt;" style="strokeWidth=2;html=1;shape=mxgraph.flowchart.decision;whiteSpace=wrap;sketch=1;curveFitting=1;jiggle=2;" vertex="1" parent="1">
          <mxGeometry x="365" y="270" width="250" height="70" as="geometry" />
        </mxCell>
        <mxCell id="3y0p0SEjVA0qC8wyg05C-17" value="" style="edgeStyle=orthogonalEdgeStyle;rounded=0;orthogonalLoop=1;jettySize=auto;html=1;sketch=1;curveFitting=1;jiggle=2;" edge="1" parent="1" source="3y0p0SEjVA0qC8wyg05C-15" target="3y0p0SEjVA0qC8wyg05C-16">
          <mxGeometry relative="1" as="geometry" />
        </mxCell>
        <mxCell id="3y0p0SEjVA0qC8wyg05C-18" value="Yes" style="edgeLabel;html=1;align=center;verticalAlign=middle;resizable=0;points=[];fontSize=16;sketch=1;curveFitting=1;jiggle=2;" vertex="1" connectable="0" parent="3y0p0SEjVA0qC8wyg05C-17">
          <mxGeometry x="-0.1585" y="-1" relative="1" as="geometry">
            <mxPoint as="offset" />
          </mxGeometry>
        </mxCell>
        <mxCell id="3y0p0SEjVA0qC8wyg05C-19" style="edgeStyle=orthogonalEdgeStyle;rounded=0;orthogonalLoop=1;jettySize=auto;html=1;exitX=1;exitY=0.5;exitDx=0;exitDy=0;exitPerimeter=0;sketch=1;curveFitting=1;jiggle=2;" edge="1" parent="1">
          <mxGeometry relative="1" as="geometry">
            <mxPoint x="630" y="200" as="targetPoint" />
            <mxPoint x="559.9999999999998" y="455" as="sourcePoint" />
            <Array as="points">
              <mxPoint x="760" y="455" />
              <mxPoint x="760" y="200" />
            </Array>
          </mxGeometry>
        </mxCell>
        <mxCell id="3y0p0SEjVA0qC8wyg05C-20" value="No" style="edgeLabel;html=1;align=center;verticalAlign=middle;resizable=0;points=[];fontSize=16;sketch=1;curveFitting=1;jiggle=2;" vertex="1" connectable="0" parent="3y0p0SEjVA0qC8wyg05C-19">
          <mxGeometry x="0.0062" y="1" relative="1" as="geometry">
            <mxPoint as="offset" />
          </mxGeometry>
        </mxCell>
        <mxCell id="3y0p0SEjVA0qC8wyg05C-15" value="Password is valid" style="strokeWidth=2;html=1;shape=mxgraph.flowchart.decision;whiteSpace=wrap;fontSize=16;sketch=1;curveFitting=1;jiggle=2;" vertex="1" parent="1">
          <mxGeometry x="360" y="420" width="260" height="70" as="geometry" />
        </mxCell>
        <mxCell id="3y0p0SEjVA0qC8wyg05C-16" value="go to login page" style="rounded=1;whiteSpace=wrap;html=1;fontSize=16;strokeWidth=2;sketch=1;curveFitting=1;jiggle=2;" vertex="1" parent="1">
          <mxGeometry x="405" y="570" width="170" height="60" as="geometry" />
        </mxCell>
      </root>
    </mxGraphModel>
  </diagram>
</mxfile>
